<?xml version="1.0" standalone="no"?>
<svg xmlns="http://www.w3.org/2000/svg" viewBox="0 0 150.12 36" width="150.12" height="36"><g fill="#ead017" color="#ead017" transform="translate(0 3.9999999999999982) scale(0.2800001)"><svg width="100.0" height="100.0" x="0.0" y="0.0" viewBox="0 0 100 100"><path d="M63.9,38.8c0,5.4-4.4,9.8-9.8,9.8c-5.4,0-9.8-4.4-9.8-9.8c0-5.4,4.4-9.8,9.8-9.8C59.5,29.1,63.9,33.4,63.9,38.8z M82.6,63.5  v17c0,1.6-1,3-2.5,3.5L36.6,98.8c-1.6,0.6-3.3-0.7-3.3-2.4v-9.1H23c-3.7,0-6.6-3-6.6-6.6V62.6h-4.9c-2.6,0-4.2-2.9-2.7-5  c1.4-2.2,3.2-5.3,4.8-8.5c1.6-3,2.9-8.3,2.9-11.8l0.1-1l0,0C17.8,15.7,35.6-0.3,56.9,1.2c19.1,1.4,34.4,17.4,35,36.6  C92.1,47.6,88.6,56.6,82.6,63.5z M81.2,36.4c0-1-0.8-1.8-1.8-1.8h-4.1c-0.6-2.8-1.7-5.5-3.2-7.8l2.9-2.9c0.7-0.7,0.7-1.8,0-2.5  L71.5,18c-0.7-0.7-1.8-0.7-2.5,0l-2.9,2.9c-2.3-1.6-5-2.7-7.8-3.2v-4.1c0-1-0.8-1.8-1.8-1.8h-4.9c-1,0-1.8,0.8-1.8,1.8v4.1  c-2.8,0.6-5.5,1.7-7.8,3.2L39.1,18c-0.7-0.7-1.8-0.7-2.5,0l-3.4,3.4c-0.7,0.7-0.7,1.8,0,2.5l2.9,2.9c-1.6,2.3-2.7,5-3.2,7.8h-4.1  c-1,0-1.8,0.8-1.8,1.8v4.9c0,1,0.8,1.8,1.8,1.8h4.1c0.6,2.8,1.7,5.5,3.2,7.8l-2.9,2.9c-0.7,0.7-0.7,1.8,0,2.5l3.4,3.4  c0.7,0.7,1.8,0.7,2.5,0l2.9-2.9c2.3,1.6,5,2.7,7.8,3.2v4.1c0,1,0.8,1.8,1.8,1.8h4.9c1,0,1.8-0.8,1.8-1.8v-4.1  c2.8-0.6,5.5-1.7,7.8-3.2l2.9,2.9c0.7,0.7,1.8,0.7,2.5,0l3.4-3.4c0.7-0.7,0.7-1.8,0-2.5l-2.9-2.9c1.6-2.3,2.7-5,3.2-7.8h4.1  c1,0,1.8-0.8,1.8-1.8V36.4z"></path></svg></g><path fill="#000000" fill-rule="nonzero" d="M9.26 1.18Q10.80 1.18 12 1.88Q13.20 2.59 13.87 3.83Q14.54 5.06 14.54 6.60L14.54 6.60L14.54 6.91Q14.54 8.45 13.87 9.70Q13.20 10.94 12 11.65Q10.80 12.36 9.26 12.36L9.26 12.36L5.30 12.36L5.30 17.69L0 17.69L0 1.18L9.26 1.18ZM5.30 5.09L5.30 8.50L7.49 8.50Q8.33 8.50 8.75 8.06Q9.17 7.63 9.17 6.89L9.17 6.89L9.17 6.70Q9.17 5.93 8.75 5.51Q8.33 5.09 7.49 5.09L7.49 5.09L5.30 5.09ZM24.70 4.70Q25.25 4.70 25.68 4.84Q26.11 4.97 26.11 4.99L26.11 4.99L26.11 9.00L24.58 9.00Q23.09 9.00 22.43 9.77Q21.77 10.54 21.77 12.05L21.77 12.05L21.77 17.69L16.99 17.69L16.99 5.02L20.90 5.02L21.22 6.94Q21.65 5.83 22.58 5.27Q23.52 4.70 24.70 4.70L24.70 4.70ZM34.58 4.73Q37.92 4.73 39.83 6.42Q41.74 8.11 41.74 11.35L41.74 11.35Q41.74 14.59 39.83 16.28Q37.92 17.98 34.58 17.98L34.58 17.98Q31.25 17.98 29.35 16.30Q27.46 14.62 27.46 11.35L27.46 11.35Q27.46 8.09 29.35 6.41Q31.25 4.73 34.58 4.73L34.58 4.73ZM34.58 7.97Q32.23 7.97 32.23 10.68L32.23 10.68L32.23 12.05Q32.23 14.74 34.58 14.74L34.58 14.74Q36.96 14.74 36.96 12.05L36.96 12.05L36.96 10.68Q36.96 7.97 34.58 7.97L34.58 7.97ZM51.31 0.89Q54.48 0.89 56.52 2.17Q58.56 3.46 58.61 5.98L58.61 5.98L58.61 6.26L53.64 6.26L53.64 6.17Q53.64 5.45 53.11 4.97Q52.58 4.49 51.50 4.49L51.50 4.49Q50.45 4.49 49.88 4.80Q49.32 5.11 49.32 5.57L49.32 5.57Q49.32 6.22 50.09 6.53Q50.86 6.84 52.56 7.18L52.56 7.18Q54.55 7.58 55.84 8.03Q57.12 8.47 58.08 9.48Q59.04 10.49 59.06 12.22L59.06 12.22Q59.06 15.14 57.08 16.56Q55.10 17.98 51.79 17.98L51.79 17.98Q47.93 17.98 45.78 16.68Q43.63 15.38 43.63 12.10L43.63 12.10L48.65 12.10Q48.65 13.34 49.30 13.76Q49.94 14.18 51.31 14.18L51.31 14.18Q52.32 14.18 52.98 13.97Q53.64 13.75 53.64 13.08L53.64 13.08Q53.64 12.48 52.91 12.18Q52.18 11.88 50.52 11.54L50.52 11.54Q48.50 11.11 47.18 10.64Q45.86 10.18 44.88 9.10Q43.90 8.02 43.90 6.17L43.90 6.17Q43.90 3.46 46.00 2.17Q48.10 0.89 51.31 0.89L51.31 0.89ZM67.92 4.73Q71.26 4.73 73.16 6.42Q75.07 8.11 75.07 11.35L75.07 11.35Q75.07 14.59 73.16 16.28Q71.26 17.98 67.92 17.98L67.92 17.98Q64.58 17.98 62.69 16.30Q60.79 14.62 60.79 11.35L60.79 11.35Q60.79 8.09 62.69 6.41Q64.58 4.73 67.92 4.73L67.92 4.73ZM67.92 7.97Q65.57 7.97 65.57 10.68L65.57 10.68L65.57 12.05Q65.57 14.74 67.92 14.74L67.92 14.74Q70.30 14.74 70.30 12.05L70.30 12.05L70.30 10.68Q70.30 7.97 67.92 7.97L67.92 7.97ZM82.54 0Q83.06 0 83.86 0.13Q84.65 0.26 85.13 0.43L85.13 0.43L85.13 3.24L84.02 3.24Q83.26 3.24 82.97 3.53Q82.68 3.82 82.68 4.51L82.68 4.51L82.68 5.02L85.13 5.02L85.13 8.26L82.68 8.26L82.68 17.69L77.90 17.69L77.90 8.26L76.13 8.26L76.13 5.02L77.90 5.02L77.90 4.49Q77.90 2.04 79.10 1.02Q80.30 0 82.54 0L82.54 0ZM92.47 5.02L95.16 5.02L95.16 8.26L92.47 8.26L92.47 13.08Q92.47 13.94 92.76 14.34Q93.05 14.74 93.82 14.74L93.82 14.74L95.16 14.74L95.16 17.54Q94.58 17.74 93.67 17.86Q92.76 17.98 92.09 17.98L92.09 17.98Q89.98 17.98 88.84 17.21Q87.70 16.44 87.70 14.59L87.70 14.59L87.70 8.26L85.92 8.26L85.92 5.02L87.89 5.02L88.92 1.18L92.47 1.18L92.47 5.02ZM105.53 0.89Q108 0.89 109.96 2.02Q111.91 3.14 113.02 5.09Q114.12 7.03 114.12 9.41L114.12 9.41Q114.12 11.78 113.02 13.74Q111.91 15.70 109.96 16.84Q108 17.98 105.53 17.98L105.53 17.98Q103.06 17.98 101.11 16.84Q99.17 15.70 98.08 13.74Q96.98 11.78 96.98 9.41L96.98 9.41Q96.98 7.03 98.08 5.09Q99.17 3.14 101.11 2.02Q103.06 0.89 105.53 0.89L105.53 0.89ZM105.53 2.42Q103.49 2.42 101.98 3.29Q100.46 4.15 99.65 5.74Q98.83 7.32 98.83 9.41L98.83 9.41Q98.83 11.50 99.65 13.09Q100.46 14.69 101.98 15.55Q103.49 16.42 105.53 16.42L105.53 16.42Q107.57 16.42 109.09 15.55Q110.62 14.69 111.44 13.09Q112.27 11.50 112.27 9.41L112.27 9.41Q112.27 7.32 111.44 5.74Q110.62 4.15 109.09 3.29Q107.57 2.42 105.53 2.42L105.53 2.42ZM106.92 4.46Q108.07 4.46 108.88 5.16Q109.68 5.86 109.68 6.96L109.68 6.96Q109.68 7.97 109.19 8.57Q108.70 9.17 108.07 9.43L108.07 9.43L108.07 9.55Q108.89 9.77 109.28 10.39Q109.68 11.02 109.68 11.88L109.68 11.88Q109.68 12.55 109.81 13.04Q109.94 13.54 110.42 13.66L110.42 13.66L110.42 14.26Q109.73 14.54 108.67 14.54L108.67 14.54Q107.54 14.54 106.99 14.14Q106.44 13.73 106.44 12.77L106.44 12.77Q106.44 11.90 106.20 11.39Q105.96 10.87 105.14 10.87L105.14 10.87L104.69 10.87L104.69 14.38L101.50 14.38L101.50 4.46L106.92 4.46ZM104.69 6.72L104.69 8.66L105.53 8.66Q105.91 8.66 106.18 8.39Q106.44 8.11 106.44 7.68L106.44 7.68Q106.44 7.27 106.18 7.00Q105.91 6.72 105.53 6.72L105.53 6.72L104.69 6.72Z" transform="translate(36, 9.156)"></path></svg>