<?xml version="1.0" standalone="no"?>
<svg xmlns="http://www.w3.org/2000/svg" viewBox="0 0 93 69" width="93" height="69"><g fill="#ead017" color="#ead017" transform="translate(24.009 0) scale(0.4835165) "><svg width="91.0" height="71.0" x="0.0" y="0.0" viewBox="0 0 91 71"><title></title><desc></desc><g stroke="none" stroke-width="1" fill="none" fill-rule="evenodd"><path d="M49.6473489,48.2829137 L49.6473489,56.2829137 C49.6473489,58.4920527 47.8564879,60.2829137 45.6473489,60.2829137 C43.4382099,60.2829137 41.6473489,58.4920527 41.6473489,56.2829137 L41.6473489,48.2829137 L33.6473489,48.2829137 C31.4382099,48.2829137 29.6473489,46.4920527 29.6473489,44.2829137 C29.6473489,42.0737747 31.4382099,40.2829137 33.6473489,40.2829137 L41.6473489,40.2829137 L41.6473489,32.2829137 C41.6473489,30.0737747 43.4382099,28.2829137 45.6473489,28.2829137 C47.8564879,28.2829137 49.6473489,30.0737747 49.6473489,32.2829137 L49.6473489,40.2829137 L57.6473489,40.2829137 C59.8564879,40.2829137 61.6473489,42.0737747 61.6473489,44.2829137 C61.6473489,46.4920527 59.8564879,48.2829137 57.6473489,48.2829137 L49.6473489,48.2829137 L49.6473489,48.2829137 Z M90.6473489,40.5764529 L90.6473489,14.0648401 C90.6473489,11.8595371 88.8574105,10.0683817 86.6494096,10.0683817 L40.8884002,10.0683817 C39.7876646,10.0683817 38.3960045,9.32752104 37.7775648,8.41362311 L33.263596,1.74311511 C32.6438316,0.827259615 31.2544421,0.0935833098 30.1529857,0.0935833098 L4.65283088,0.0935833098 C2.43117933,0.0935833098 0.647348871,1.87958717 0.647348871,4.08273457 L0.647348871,15.0557809 L0.647348871,40.5764529 L0.647348871,15.2321922 L90.6473489,15.2321922 L90.6473489,40.5764529 L90.6473489,40.5764529 Z M0.647348871,23.2139106 C0.647348871,21.0093009 2.44513299,19.2221115 4.64528813,19.2221115 L86.6494096,19.2221115 C88.8574105,19.2221115 90.6473489,21.0177117 90.6473489,23.2139106 L90.6473489,66.1017842 C90.6473489,68.306394 88.8495648,70.0935833 86.6494096,70.0935833 L4.64528813,70.0935833 C2.43728725,70.0935833 0.647348871,68.2979832 0.647348871,66.1017842 L0.647348871,23.2139106 L0.647348871,23.2139106 Z" fill="currentColor"></path></g></svg></g><path fill="#000000" fill-rule="nonzero" d="M9.74 7.49L9.74 7.49Q10.54 7.49 10.98 7.92Q11.42 8.35 11.42 9.12L11.42 9.12Q11.42 9.31 11.39 9.52Q11.35 9.72 11.30 9.86L11.30 9.86Q10.99 9.82 10.61 9.78Q10.22 9.74 9.70 9.74L9.70 9.74Q8.66 9.74 7.61 9.92Q6.55 10.10 5.59 10.22L5.59 10.22Q5.04 11.50 4.58 12.68Q4.13 13.87 3.80 14.86Q3.48 15.84 3.30 16.56Q3.12 17.28 3.10 17.64L3.10 17.64Q5.04 17.23 7.02 16.94Q9 16.66 11.18 16.51L11.18 16.51Q11.45 16.92 11.63 17.40Q11.81 17.88 11.81 18.43L11.81 18.43Q11.81 18.58 11.81 18.74Q11.81 18.91 11.76 19.08L11.76 19.08Q11.09 19.06 10.34 19.04Q9.60 19.03 8.40 19.03L8.40 19.03Q7.61 19.03 6.90 19.07Q6.19 19.10 5.47 19.18Q4.75 19.25 3.95 19.37Q3.14 19.49 2.14 19.66L2.14 19.66Q1.03 19.22 0 17.54L0 17.54Q0.41 16.68 1.14 14.92Q1.87 13.15 3.00 10.20L3.00 10.20Q1.92 9.86 1.58 9L1.58 9Q1.70 8.88 2.28 8.70Q2.86 8.52 3.70 8.33L3.70 8.33Q4.06 7.39 4.31 6.70Q4.56 6 4.75 5.39Q4.94 4.78 5.10 4.19Q5.26 3.60 5.40 2.90L5.40 2.90Q4.56 2.86 4.08 2.44Q3.60 2.02 3.60 1.34L3.60 1.34Q3.60 1.15 3.66 0.89Q3.72 0.62 3.79 0.43L3.79 0.43Q4.27 0.50 4.72 0.53Q5.16 0.55 5.88 0.55L5.88 0.55Q7.39 0.55 8.71 0.47Q10.03 0.38 11.10 0.29Q12.17 0.19 12.94 0.11Q13.70 0.02 14.11 0.02L14.11 0.02Q14.66 0.02 15.10 0.60Q15.53 1.18 15.74 2.23L15.74 2.23Q15.00 2.16 14.53 2.14Q14.06 2.11 13.70 2.11L13.70 2.11Q12.38 2.11 11.29 2.24Q10.20 2.38 9.19 2.52L9.19 2.52Q9.05 2.74 8.87 3.07Q8.69 3.41 8.40 4.01Q8.11 4.61 7.69 5.52Q7.27 6.43 6.67 7.80L6.67 7.80Q7.58 7.66 8.39 7.57Q9.19 7.49 9.74 7.49ZM22.15 8.02L22.15 8.02Q22.39 8.02 22.72 8.10Q23.04 8.18 23.30 8.32Q23.57 8.45 23.75 8.59Q23.93 8.74 23.93 8.86L23.93 8.86Q23.45 9.86 23.04 10.88Q22.63 11.90 22.34 12.84Q22.06 13.78 21.90 14.59Q21.74 15.41 21.74 16.01L21.74 16.01Q21.74 16.68 21.89 17.12Q22.03 17.57 22.37 17.76L22.37 17.76Q22.08 17.95 21.62 18.07Q21.17 18.19 20.81 18.19L20.81 18.19Q19.51 18.19 19.51 16.42L19.51 16.42Q19.51 15.05 20.42 12.67L20.42 12.67Q19.94 13.78 19.32 14.75Q18.70 15.72 18.05 16.46Q17.40 17.21 16.74 17.68Q16.08 18.14 15.53 18.24L15.53 18.24Q14.64 18.19 14.09 17.39Q13.54 16.58 13.54 15.34L13.54 15.34Q13.54 13.99 14.11 12.50Q14.69 11.02 15.59 9.74Q16.49 8.47 17.54 7.62Q18.60 6.77 19.58 6.72L19.58 6.72Q19.82 6.79 20.12 7.01Q20.42 7.22 20.70 7.51Q20.98 7.80 21.17 8.10Q21.36 8.40 21.38 8.62L21.38 8.62Q20.42 8.76 19.40 9.55Q18.38 10.34 17.56 11.46Q16.73 12.58 16.20 13.85Q15.67 15.12 15.67 16.22L15.67 16.22Q15.67 16.68 16.01 16.80L16.01 16.80Q16.70 16.66 17.62 15.61Q18.53 14.57 19.82 12.38L19.82 12.38Q20.06 11.95 20.36 11.42Q20.66 10.90 20.98 10.32Q21.29 9.74 21.59 9.16Q21.89 8.57 22.15 8.02ZM33.43 8.16L33.43 8.16Q33.41 8.62 33.28 9.11Q33.14 9.60 32.95 10.00Q32.76 10.39 32.54 10.66Q32.33 10.92 32.14 10.92L32.14 10.92Q31.87 10.90 31.82 10.56L31.82 10.56Q31.82 10.49 31.88 10.33Q31.94 10.18 32.02 9.98Q32.09 9.79 32.15 9.60Q32.21 9.41 32.21 9.26L32.21 9.26Q32.21 8.93 32.05 8.70Q31.90 8.47 31.63 8.47L31.63 8.47Q30.67 8.47 30.17 9.67Q29.66 10.87 29.66 13.20L29.66 13.20Q29.66 13.44 29.69 13.49L29.69 13.49Q30.19 13.46 30.59 13.45Q30.98 13.44 31.37 13.44L31.37 13.44Q31.39 13.49 31.39 13.63L31.39 13.63Q31.39 13.85 31.30 13.94L31.30 13.94Q30.74 14.06 30.42 14.15Q30.10 14.23 29.93 14.30Q29.76 14.38 29.72 14.46Q29.69 14.54 29.69 14.69L29.69 14.69Q29.69 14.88 29.70 15.07Q29.71 15.26 29.71 15.55L29.71 15.55Q29.71 17.57 28.62 18.79Q27.53 20.02 25.58 20.21L25.58 20.21Q25.25 20.18 24.89 20.02Q24.53 19.85 24.20 19.58Q23.88 19.32 23.64 19.00Q23.40 18.67 23.30 18.34L23.30 18.34Q23.30 17.42 23.69 16.60Q24.07 15.77 24.73 15.13Q25.39 14.50 26.29 14.10Q27.19 13.70 28.25 13.63L28.25 13.63Q28.25 13.03 28.13 12.46Q28.01 11.88 27.88 11.34Q27.74 10.80 27.62 10.28Q27.50 9.77 27.50 9.26L27.50 9.26Q27.50 8.62 27.77 7.98Q28.03 7.34 28.46 6.80Q28.90 6.26 29.47 5.88Q30.05 5.50 30.67 5.35L30.67 5.35Q30.94 5.42 31.38 5.77Q31.82 6.12 32.26 6.55Q32.69 6.98 33.02 7.43Q33.36 7.87 33.43 8.16ZM25.51 19.10L25.51 19.10Q26.09 18.86 26.60 18.41Q27.12 17.95 27.50 17.38Q27.89 16.80 28.12 16.15Q28.34 15.50 28.34 14.88L28.34 14.88Q27.86 14.95 27.29 15.32Q26.71 15.70 26.21 16.21Q25.70 16.73 25.37 17.28Q25.03 17.83 25.03 18.24L25.03 18.24Q25.03 18.77 25.51 19.10ZM42.48 13.99L42.48 13.99Q41.93 15.74 41.38 17.18Q40.82 18.62 40.20 19.84Q39.58 21.05 38.86 22.07Q38.14 23.09 37.27 24L37.27 24Q36.17 25.15 34.99 25.76Q33.82 26.38 32.64 26.38L32.64 26.38Q32.04 26.38 31.45 26.24Q30.86 26.11 30.35 25.88Q29.83 25.66 29.44 25.36Q29.04 25.06 28.87 24.72L28.87 24.72Q28.87 24.43 29.21 24.22L29.21 24.22Q29.50 24.48 29.69 24.62Q29.88 24.77 30.06 24.86Q30.24 24.96 30.44 24.98Q30.65 25.01 30.91 25.01L30.91 25.01Q32.28 25.01 33.59 24.20Q34.90 23.40 36.06 21.92Q37.22 20.45 38.18 18.35Q39.14 16.25 39.82 13.66L39.82 13.66Q39.50 14.14 39.05 14.83Q38.59 15.53 38.04 16.21Q37.49 16.90 36.90 17.45Q36.31 18 35.76 18.19L35.76 18.19Q35.38 18.17 34.96 18.04Q34.54 17.90 34.16 17.66Q33.79 17.42 33.50 17.09Q33.22 16.75 33.12 16.32L33.12 16.32Q33.12 15.62 33.17 15.20Q33.22 14.78 33.34 14.28L33.34 14.28Q33.55 13.37 33.97 12.22Q34.39 11.06 34.96 9.95Q35.52 8.83 36.20 7.86Q36.89 6.89 37.63 6.34L37.63 6.34Q37.82 6.34 38.11 6.37Q38.40 6.41 38.71 6.50Q39.02 6.60 39.31 6.73Q39.60 6.86 39.82 7.08L39.82 7.08Q39.55 7.32 38.66 8.69Q37.78 10.06 36.70 12.62L36.70 12.62Q36.58 12.89 36.41 13.39Q36.24 13.90 36.08 14.45Q35.93 15 35.81 15.53Q35.69 16.06 35.69 16.37L35.69 16.37Q35.69 16.56 35.75 16.66Q35.81 16.75 35.86 16.80L35.86 16.80Q36.29 16.73 37.01 16.09Q37.73 15.46 38.64 14.11L38.64 14.11Q39.22 13.25 39.70 12.40Q40.18 11.54 40.64 10.68Q41.11 9.82 41.62 8.90Q42.12 7.99 42.70 7.03L42.70 7.03Q43.01 7.03 43.37 7.10Q43.73 7.18 44.06 7.28Q44.40 7.39 44.65 7.52Q44.90 7.66 45.02 7.80L45.02 7.80Q44.28 9.38 43.63 10.90Q42.98 12.41 42.48 13.99ZM60.58 1.54L60.58 1.54Q60.65 1.94 60.68 2.10Q60.72 2.26 60.72 2.52L60.72 2.52Q60.72 3.31 60.37 4.00Q60.02 4.68 59.42 4.97L59.42 4.97Q58.94 4.32 58.25 3.85Q57.55 3.38 56.72 3.08Q55.90 2.78 55.01 2.64Q54.12 2.50 53.28 2.50L53.28 2.50Q52.44 2.50 51.71 2.63Q50.98 2.76 50.41 2.99Q49.85 3.22 49.52 3.55Q49.20 3.89 49.20 4.32L49.20 4.32Q49.27 4.85 49.85 5.39Q50.42 5.93 51.26 6.44Q52.10 6.96 53.12 7.46Q54.14 7.97 55.13 8.42L55.13 8.42Q56.35 9 57.24 9.49Q58.13 9.98 58.70 10.57Q59.28 11.16 59.57 11.90Q59.86 12.65 59.86 13.70L59.86 13.70Q59.86 14.93 59.45 16.00Q59.04 17.06 58.26 17.86Q57.48 18.65 56.38 19.09Q55.27 19.54 53.90 19.54L53.90 19.54Q52.56 19.54 51.00 19.13Q49.44 18.72 48.08 18.01Q46.73 17.30 45.83 16.38Q44.93 15.46 44.93 14.42L44.93 14.42Q44.93 13.94 45.20 13.20Q45.48 12.46 46.20 11.64L46.20 11.64Q46.27 12.36 46.98 13.34Q47.69 14.33 49.10 15.17L49.10 15.17Q50.42 15.94 51.83 16.28Q53.23 16.63 54.46 16.63L54.46 16.63Q55.80 16.63 56.64 16.30Q57.48 15.96 57.96 15.49Q58.44 15.02 58.63 14.54Q58.82 14.06 58.85 13.78L58.85 13.78Q58.82 13.30 58.40 12.85Q57.98 12.41 57.28 11.99Q56.57 11.57 55.63 11.14Q54.70 10.70 53.69 10.27L53.69 10.27Q52.18 9.60 51.08 9.01Q49.99 8.42 49.28 7.81Q48.58 7.20 48.25 6.53Q47.93 5.86 47.93 4.99L47.93 4.99Q47.93 3.65 48.74 2.45Q49.56 1.25 51.10 0.62L51.10 0.62Q51.86 0.29 52.74 0.14Q53.62 0 54.46 0L54.46 0Q56.04 0 57.55 0.43Q59.06 0.86 60.58 1.54ZM69.96 8.02L69.96 8.02Q70.20 8.02 70.52 8.10Q70.85 8.18 71.11 8.32Q71.38 8.45 71.56 8.59Q71.74 8.74 71.74 8.86L71.74 8.86Q71.26 9.86 70.85 10.88Q70.44 11.90 70.15 12.84Q69.86 13.78 69.71 14.59Q69.55 15.41 69.55 16.01L69.55 16.01Q69.55 16.68 69.70 17.12Q69.84 17.57 70.18 17.76L70.18 17.76Q69.89 17.95 69.43 18.07Q68.98 18.19 68.62 18.19L68.62 18.19Q67.32 18.19 67.32 16.42L67.32 16.42Q67.32 15.05 68.23 12.67L68.23 12.67Q67.75 13.78 67.13 14.75Q66.50 15.72 65.86 16.46Q65.21 17.21 64.55 17.68Q63.89 18.14 63.34 18.24L63.34 18.24Q62.45 18.19 61.90 17.39Q61.34 16.58 61.34 15.34L61.34 15.34Q61.34 13.99 61.92 12.50Q62.50 11.02 63.40 9.74Q64.30 8.47 65.35 7.62Q66.41 6.77 67.39 6.72L67.39 6.72Q67.63 6.79 67.93 7.01Q68.23 7.22 68.51 7.51Q68.78 7.80 68.98 8.10Q69.17 8.40 69.19 8.62L69.19 8.62Q68.23 8.76 67.21 9.55Q66.19 10.34 65.36 11.46Q64.54 12.58 64.01 13.85Q63.48 15.12 63.48 16.22L63.48 16.22Q63.48 16.68 63.82 16.80L63.82 16.80Q64.51 16.66 65.42 15.61Q66.34 14.57 67.63 12.38L67.63 12.38Q67.87 11.95 68.17 11.42Q68.47 10.90 68.78 10.32Q69.10 9.74 69.40 9.16Q69.70 8.57 69.96 8.02ZM73.99 9.22L73.99 9.22Q73.99 8.78 74.05 8.40Q74.11 8.02 74.30 7.74Q74.50 7.46 74.83 7.31Q75.17 7.15 75.72 7.15L75.72 7.15Q76.06 7.15 76.48 7.22Q76.90 7.30 77.09 7.49L77.09 7.49Q76.99 7.90 76.93 8.21Q76.87 8.52 76.84 8.89Q76.80 9.26 76.78 9.78Q76.75 10.30 76.73 11.11L76.73 11.11Q76.68 12.74 76.57 14.03Q76.46 15.31 76.08 16.58L76.08 16.58Q76.08 16.68 76.15 16.68L76.15 16.68Q76.51 16.42 76.97 15.91Q77.42 15.41 77.93 14.77Q78.43 14.14 78.94 13.42Q79.44 12.70 79.87 12L79.87 12Q80.45 10.99 81.14 9.48Q81.84 7.97 82.30 6.24L82.30 6.24Q82.44 6.24 82.67 6.30Q82.90 6.36 83.12 6.44Q83.35 6.53 83.53 6.62Q83.71 6.72 83.78 6.79L83.78 6.79Q83.74 7.82 83.29 8.90Q82.85 9.98 82.22 10.99Q81.60 12 80.90 12.89Q80.21 13.78 79.63 14.42L79.63 14.42Q78.48 15.77 77.32 16.82Q76.15 17.88 74.54 18.86L74.54 18.86Q73.92 18.62 73.56 18.23Q73.20 17.83 73.20 17.40L73.20 17.40Q73.20 17.11 73.33 16.74Q73.46 16.37 73.63 15.78Q73.80 15.19 73.93 14.30Q74.06 13.42 74.06 12.05L74.06 12.05Q74.06 11.26 74.03 10.45Q73.99 9.65 73.99 9.22ZM92.02 7.78L92.02 7.78Q91.92 9.26 91.49 10.33Q91.06 11.40 90.25 12.20Q89.45 13.01 88.30 13.66Q87.14 14.30 85.61 14.90L85.61 14.90Q85.61 15.05 85.60 15.20Q85.58 15.36 85.58 15.53L85.58 15.53Q85.58 15.84 85.63 16.18Q85.68 16.51 85.80 16.80Q85.92 17.09 86.14 17.27Q86.35 17.45 86.69 17.45L86.69 17.45Q87.34 17.45 87.96 17.16Q88.58 16.87 89.15 16.45Q89.71 16.03 90.20 15.54Q90.70 15.05 91.08 14.64L91.08 14.64Q91.32 14.86 91.49 15.05L91.49 15.05Q90.41 16.49 89.12 17.44Q87.84 18.38 86.69 18.65L86.69 18.65Q85.03 18.46 84.11 17.44Q83.18 16.42 83.18 14.98L83.18 14.98Q83.18 13.99 83.46 12.97Q83.74 11.95 84.23 11.00Q84.72 10.06 85.38 9.22Q86.04 8.38 86.80 7.75Q87.55 7.13 88.36 6.77Q89.16 6.41 89.95 6.41L89.95 6.41Q91.06 6.55 92.02 7.78ZM90.36 8.57L90.36 8.57Q89.71 8.66 89.02 9.10Q88.32 9.53 87.71 10.25Q87.10 10.97 86.59 11.93Q86.09 12.89 85.80 13.99L85.80 13.99Q87.72 13.03 88.99 11.63Q90.26 10.22 90.36 8.57Z" transform="translate(0, 42.33)"></path></svg>